<svg xmlns="http://www.w3.org/2000/svg" xmlns:xlink="http://www.w3.org/1999/xlink" viewBox="0 0 152.8 152.8"><defs><style>.a{fill:#5b6773;}.b{opacity:0.3;}.c{fill:#9da4ab;}.d{fill:#adadc9;}.e{opacity:0.4;}.f{fill:url(#a);}.g{fill:#f2f2f2;}.h{fill:#cccfd3;}.i{fill:#f2edf1;}</style><linearGradient id="a" x1="23.43" y1="23.44" x2="129.36" y2="129.36" gradientUnits="userSpaceOnUse"><stop offset="0" stop-color="#fff"/><stop offset="1"/></linearGradient></defs><path class="a" d="M151.31,76.4A74.92,74.92,0,1,1,70.89,1.71c1.82-.15,3.65-.21,5.51-.21a75,75,0,0,1,74.91,74.9Z"/><g class="b"><path class="c" d="M140.63,37.9c-4.44,21.89-31.51,38.77-64.23,38.77S16.58,59.76,12.17,37.84A74.9,74.9,0,0,1,70.89,1.71c1.82-.15,3.65-.21,5.51-.21A74.73,74.73,0,0,1,140.63,37.9Z"/></g><path class="d" d="M76.4,152.8A76.46,76.46,0,0,1,4.89,49.43a75.67,75.67,0,0,1,6-12.36A76.54,76.54,0,0,1,70.78.21C72.54.07,74.39,0,76.4,0a76.4,76.4,0,0,1,0,152.8ZM76.4,3c-1.93,0-3.7.07-5.39.2A73.53,73.53,0,0,0,13.46,38.61,72.48,72.48,0,0,0,7.7,50.48,73.41,73.41,0,1,0,76.4,3Z"/><g class="e"><path class="f" d="M151.31,76.4A74.92,74.92,0,1,1,70.89,1.71c1.82-.15,3.65-.21,5.51-.21a75,75,0,0,1,74.91,74.9Z"/><path class="g" d="M76.4,152.8A76.46,76.46,0,0,1,4.89,49.43a75.67,75.67,0,0,1,6-12.36A76.54,76.54,0,0,1,70.78.21C72.54.07,74.39,0,76.4,0a76.4,76.4,0,0,1,0,152.8ZM76.4,3c-1.93,0-3.7.07-5.39.2A73.53,73.53,0,0,0,13.46,38.61,72.48,72.48,0,0,0,7.7,50.48,73.41,73.41,0,1,0,76.4,3Z"/></g><rect class="h" x="47.35" y="47.38" width="20.72" height="58.05" rx="3.3"/><path class="i" d="M64.77,106.93H50.65a4.8,4.8,0,0,1-4.8-4.8V50.68a4.8,4.8,0,0,1,4.8-4.8H64.77a4.8,4.8,0,0,1,4.8,4.8v51.45A4.8,4.8,0,0,1,64.77,106.93Zm-14.12-58a1.8,1.8,0,0,0-1.8,1.8v51.45a1.81,1.81,0,0,0,1.8,1.8H64.77a1.8,1.8,0,0,0,1.8-1.8V50.68a1.79,1.79,0,0,0-1.8-1.8Z"/><rect class="h" x="84.73" y="47.38" width="20.72" height="58.05" rx="3.3"/><path class="i" d="M102.16,106.93H88a4.8,4.8,0,0,1-4.79-4.8V50.68A4.8,4.8,0,0,1,88,45.88h14.13a4.81,4.81,0,0,1,4.8,4.8v51.45A4.81,4.81,0,0,1,102.16,106.93ZM88,48.88a1.8,1.8,0,0,0-1.8,1.8v51.45a1.81,1.81,0,0,0,1.8,1.8h14.13a1.81,1.81,0,0,0,1.8-1.8V50.68a1.8,1.8,0,0,0-1.8-1.8Z"/></svg>