<svg xmlns="http://www.w3.org/2000/svg" xmlns:xlink="http://www.w3.org/1999/xlink" viewBox="0 0 152.8 152.8"><defs><style>.a{fill:#222426;}.b{opacity:0.6;}.c{fill:#5b6773;}.d{opacity:0.3;}.e{fill:#9da4ab;}.f{fill:#adadc9;}.g{opacity:0.4;}.h{fill:url(#a);}.i{fill:#f2f2f2;}.j{fill:#cccfd3;stroke:#f2f2f2;stroke-miterlimit:10;stroke-width:3px;}</style><linearGradient id="a" x1="23.43" y1="23.44" x2="129.36" y2="129.36" gradientUnits="userSpaceOnUse"><stop offset="0" stop-color="#fff"/><stop offset="1"/></linearGradient></defs><path class="a" d="M141.92,37.13A75.76,75.76,0,0,0,76.4,0c-2,0-3.86.07-5.62.21A76.54,76.54,0,0,0,10.89,37.07a75.67,75.67,0,0,0-6,12.36,76.42,76.42,0,1,0,137-12.3Z"/><g class="b"><path class="c" d="M151.31,76.4A74.92,74.92,0,1,1,70.89,1.71c1.82-.15,3.65-.21,5.51-.21a75,75,0,0,1,74.91,74.9Z"/><g class="d"><path class="e" d="M140.63,37.9c-4.44,21.89-31.51,38.77-64.23,38.77S16.58,59.76,12.17,37.84A74.9,74.9,0,0,1,70.89,1.71c1.82-.15,3.65-.21,5.51-.21A74.73,74.73,0,0,1,140.63,37.9Z"/></g><path class="f" d="M76.4,152.8A76.46,76.46,0,0,1,4.89,49.43a75.67,75.67,0,0,1,6-12.36A76.54,76.54,0,0,1,70.78.21C72.54.07,74.39,0,76.4,0a76.4,76.4,0,0,1,0,152.8ZM76.4,3c-1.93,0-3.7.07-5.39.2A73.53,73.53,0,0,0,13.46,38.61,72.48,72.48,0,0,0,7.7,50.48,73.41,73.41,0,1,0,76.4,3Z"/><g class="g"><path class="h" d="M151.31,76.4A74.92,74.92,0,1,1,70.89,1.71c1.82-.15,3.65-.21,5.51-.21a75,75,0,0,1,74.91,74.9Z"/><path class="i" d="M76.4,152.8A76.46,76.46,0,0,1,4.89,49.43a75.67,75.67,0,0,1,6-12.36A76.54,76.54,0,0,1,70.78.21C72.54.07,74.39,0,76.4,0a76.4,76.4,0,0,1,0,152.8ZM76.4,3c-1.93,0-3.7.07-5.39.2A73.53,73.53,0,0,0,13.46,38.61,72.48,72.48,0,0,0,7.7,50.48,73.41,73.41,0,1,0,76.4,3Z"/></g><path class="j" d="M108.15,79.61,63.56,108.36c-3.39,2.19-8.44.27-8.44-3.2V47.65c0-3.47,5.05-5.39,8.44-3.21L108.15,73.2A3.64,3.64,0,0,1,108.15,79.61Z"/></g></svg>