<svg xmlns="http://www.w3.org/2000/svg" xmlns:xlink="http://www.w3.org/1999/xlink" viewBox="0 0 152.81 152.8"><defs><style>.a{fill:#222426;}.b{opacity:0.6;}.c{fill:#5b6773;}.d{opacity:0.3;}.e{fill:#9da4ab;}.f{fill:#adadc9;}.g{opacity:0.4;}.h{fill:url(#a);}.i{fill:#f2f2f2;}.j{fill:#cccfd3;}.k{fill:#f2edf1;}</style><linearGradient id="a" x1="62.77" y1="23.44" x2="168.69" y2="129.36" gradientTransform="translate(-39.34 0)" gradientUnits="userSpaceOnUse"><stop offset="0" stop-color="#fff"/><stop offset="1"/></linearGradient></defs><path class="a" d="M141.92,37.13A75.76,75.76,0,0,0,76.4,0c-2,0-3.86.07-5.62.21A76.54,76.54,0,0,0,10.89,37.07a75.67,75.67,0,0,0-6,12.36,76.42,76.42,0,1,0,137-12.3Z"/><g class="b"><path class="c" d="M151.31,76.4A74.92,74.92,0,1,1,70.89,1.71c1.82-.15,3.65-.21,5.51-.21a75,75,0,0,1,74.91,74.9Z"/><g class="d"><path class="e" d="M140.63,37.9c-4.44,21.89-31.51,38.77-64.23,38.77S16.58,59.76,12.17,37.84A74.9,74.9,0,0,1,70.89,1.71c1.82-.15,3.65-.21,5.51-.21A74.73,74.73,0,0,1,140.63,37.9Z"/></g><path class="f" d="M76.4,152.8A76.4,76.4,0,0,1,70.78.21C72.54.07,74.39,0,76.4,0a76.4,76.4,0,1,1,0,152.8ZM76.4,3c-1.93,0-3.7.07-5.39.2a73.45,73.45,0,1,0,68.34,35.48A72.76,72.76,0,0,0,76.4,3Z"/><g class="g"><path class="h" d="M151.31,76.4A74.92,74.92,0,1,1,70.89,1.71c1.82-.15,3.65-.21,5.51-.21a75,75,0,0,1,74.91,74.9Z"/><path class="i" d="M76.4,152.8A76.4,76.4,0,0,1,70.78.21C72.54.07,74.39,0,76.4,0a76.4,76.4,0,1,1,0,152.8ZM76.4,3c-1.93,0-3.7.07-5.39.2a73.45,73.45,0,1,0,68.34,35.48A72.76,72.76,0,0,0,76.4,3Z"/></g><path class="j" d="M87.9,79.91,54.36,107.05A3.9,3.9,0,0,1,48,104V49.74a3.9,3.9,0,0,1,6.35-3L87.9,73.86A3.88,3.88,0,0,1,87.9,79.91Z"/><path class="k" d="M51.92,109.43a5.5,5.5,0,0,1-2.33-.53A5.35,5.35,0,0,1,46.52,104V49.74a5.39,5.39,0,0,1,8.78-4.19L88.84,72.69a5.37,5.37,0,0,1,0,8.38L55.3,108.22A5.33,5.33,0,0,1,51.92,109.43Zm0-62.09a2.29,2.29,0,0,0-1,.24,2.34,2.34,0,0,0-1.37,2.16V104a2.4,2.4,0,0,0,3.91,1.86L87,78.74a2.38,2.38,0,0,0,.89-1.86A2.41,2.41,0,0,0,87,75L53.42,47.88A2.38,2.38,0,0,0,51.92,47.34Z"/><path class="j" d="M102.48,110.91a3.75,3.75,0,0,1-3.75-3.75V46.61a3.75,3.75,0,0,1,7.5,0v60.55A3.75,3.75,0,0,1,102.48,110.91Z"/><path class="k" d="M102.48,44.36a2.25,2.25,0,0,1,2.25,2.25v60.55a2.25,2.25,0,0,1-4.5,0V46.61a2.25,2.25,0,0,1,2.25-2.25m0-3a5.25,5.25,0,0,0-5.25,5.25v60.55a5.25,5.25,0,1,0,10.49,0V46.61a5.25,5.25,0,0,0-5.24-5.25Z"/></g></svg>