<svg xmlns="http://www.w3.org/2000/svg" xmlns:xlink="http://www.w3.org/1999/xlink" viewBox="0 0 152.8 152.8"><defs><style>.a{fill:#222426;}.b{opacity:0.6;}.c{fill:#5b6773;}.d{opacity:0.3;}.e{fill:#9da4ab;}.f{fill:#adadc9;}.g{opacity:0.4;}.h{fill:url(#a);}.i{fill:#f2f2f2;}.j{fill:#cccfd3;}.k{fill:#f2edf1;}</style><linearGradient id="a" x1="62.77" y1="23.44" x2="168.69" y2="129.36" gradientTransform="translate(-39.34 0)" gradientUnits="userSpaceOnUse"><stop offset="0" stop-color="#fff"/><stop offset="1"/></linearGradient></defs><path class="a" d="M141.92,37.13A75.76,75.76,0,0,0,76.4,0c-2,0-3.86.07-5.62.21A76.54,76.54,0,0,0,10.89,37.07a75.67,75.67,0,0,0-6,12.36,76.42,76.42,0,1,0,137-12.3Z"/><g class="b"><path class="c" d="M151.31,76.4A74.92,74.92,0,1,1,70.89,1.71c1.82-.15,3.65-.21,5.51-.21a75,75,0,0,1,74.91,74.9Z"/><g class="d"><path class="e" d="M140.63,37.9c-4.44,21.89-31.51,38.77-64.23,38.77S16.58,59.76,12.17,37.84A74.9,74.9,0,0,1,70.89,1.71c1.82-.15,3.65-.21,5.51-.21A74.73,74.73,0,0,1,140.63,37.9Z"/></g><path class="f" d="M76.4,152.8A76.4,76.4,0,0,1,70.78.21C72.54.07,74.39,0,76.4,0a76.4,76.4,0,0,1,0,152.8ZM76.4,3c-1.93,0-3.7.07-5.39.2a73.45,73.45,0,1,0,68.34,35.48A72.76,72.76,0,0,0,76.4,3Z"/><g class="g"><path class="h" d="M151.31,76.4A74.92,74.92,0,1,1,70.89,1.71c1.82-.15,3.65-.21,5.51-.21a75,75,0,0,1,74.91,74.9Z"/><path class="i" d="M76.4,152.8A76.4,76.4,0,0,1,70.78.21C72.54.07,74.39,0,76.4,0a76.4,76.4,0,0,1,0,152.8ZM76.4,3c-1.93,0-3.7.07-5.39.2a73.45,73.45,0,1,0,68.34,35.48A72.76,72.76,0,0,0,76.4,3Z"/></g><path class="j" d="M81.36,79.91,47.82,107.05a3.9,3.9,0,0,1-6.35-3V49.74a3.9,3.9,0,0,1,6.35-3L81.36,73.86A3.88,3.88,0,0,1,81.36,79.91Z"/><path class="k" d="M45.38,109.43a5.47,5.47,0,0,1-2.33-.53A5.36,5.36,0,0,1,40,104V49.74a5.4,5.4,0,0,1,8.79-4.19L82.3,72.69a5.39,5.39,0,0,1,0,8.38L48.76,108.22A5.37,5.37,0,0,1,45.38,109.43Zm0-62.09a2.26,2.26,0,0,0-1,.24A2.34,2.34,0,0,0,43,49.74V104a2.35,2.35,0,0,0,1.37,2.16,2.32,2.32,0,0,0,2.53-.3L80.42,78.74a2.38,2.38,0,0,0,.89-1.86A2.41,2.41,0,0,0,80.42,75L46.87,47.88A2.34,2.34,0,0,0,45.38,47.34Z"/><path class="j" d="M97.44,74.67l8.42-11.18a3.69,3.69,0,0,1,5.89,0l8.41,11.18a3.71,3.71,0,0,1,0,4.43l-8.41,11.18a3.7,3.7,0,0,1-5.89,0L97.44,79.1A3.68,3.68,0,0,1,97.44,74.67Z"/><path class="k" d="M108.81,93.24a5.13,5.13,0,0,1-4.14-2.06L96.24,80a5.21,5.21,0,0,1,0-6.24l8.43-11.17a5.12,5.12,0,0,1,4.14-2.07h0A5.16,5.16,0,0,1,113,62.59l8.41,11.18a5.21,5.21,0,0,1,0,6.23L113,91.18a5.15,5.15,0,0,1-4.14,2.06ZM98.64,75.57a2.19,2.19,0,0,0,0,2.63l8.43,11.18a2.19,2.19,0,0,0,1.75.87h0a2.16,2.16,0,0,0,1.74-.87L119,78.2a2.21,2.21,0,0,0,0-2.63l-8.41-11.18a2.16,2.16,0,0,0-1.74-.87h0a2.18,2.18,0,0,0-1.75.87Z"/></g></svg>