<svg xmlns="http://www.w3.org/2000/svg" xmlns:xlink="http://www.w3.org/1999/xlink" viewBox="0 0 152.8 152.8"><defs><style>.a{fill:#222426;}.b{opacity:0.6;}.c{fill:#5b6773;}.d{opacity:0.3;}.e{fill:#9da4ab;}.f{fill:#adadc9;}.g{opacity:0.4;}.h{fill:url(#a);}.i{fill:#f2f2f2;}.j{fill:#cccfd3;}.k{fill:#f2edf1;}</style><linearGradient id="a" x1="23.43" y1="23.44" x2="129.36" y2="129.36" gradientUnits="userSpaceOnUse"><stop offset="0" stop-color="#fff"/><stop offset="1"/></linearGradient></defs><path class="a" d="M141.92,37.13A75.76,75.76,0,0,0,76.4,0c-2,0-3.86.07-5.62.21A76.54,76.54,0,0,0,10.89,37.07a75.67,75.67,0,0,0-6,12.36,76.42,76.42,0,1,0,137-12.3Z"/><g class="b"><path class="c" d="M151.31,76.4A74.92,74.92,0,1,1,70.89,1.71c1.82-.15,3.65-.21,5.51-.21a75,75,0,0,1,74.91,74.9Z"/><g class="d"><path class="e" d="M140.63,37.9c-4.44,21.89-31.51,38.77-64.23,38.77S16.58,59.76,12.17,37.84A74.9,74.9,0,0,1,70.89,1.71c1.82-.15,3.65-.21,5.51-.21A74.73,74.73,0,0,1,140.63,37.9Z"/></g><path class="f" d="M76.4,152.8A76.46,76.46,0,0,1,4.89,49.43a75.67,75.67,0,0,1,6-12.36A76.54,76.54,0,0,1,70.78.21C72.54.07,74.39,0,76.4,0a76.4,76.4,0,0,1,0,152.8ZM76.4,3c-1.93,0-3.7.07-5.39.2A73.53,73.53,0,0,0,13.46,38.61,72.48,72.48,0,0,0,7.7,50.48,73.41,73.41,0,1,0,76.4,3Z"/><g class="g"><path class="h" d="M151.31,76.4A74.92,74.92,0,1,1,70.89,1.71c1.82-.15,3.65-.21,5.51-.21a75,75,0,0,1,74.91,74.9Z"/><path class="i" d="M76.4,152.8A76.46,76.46,0,0,1,4.89,49.43a75.67,75.67,0,0,1,6-12.36A76.54,76.54,0,0,1,70.78.21C72.54.07,74.39,0,76.4,0a76.4,76.4,0,0,1,0,152.8ZM76.4,3c-1.93,0-3.7.07-5.39.2A73.53,73.53,0,0,0,13.46,38.61,72.48,72.48,0,0,0,7.7,50.48,73.41,73.41,0,1,0,76.4,3Z"/></g><path class="j" d="M71.45,72.9,105,45.75a3.89,3.89,0,0,1,6.34,3v54.29a3.89,3.89,0,0,1-6.34,3L71.45,79A3.88,3.88,0,0,1,71.45,72.9Z"/><path class="k" d="M107.43,108.47a5.33,5.33,0,0,1-3.38-1.21L70.5,80.12a5.4,5.4,0,0,1,0-8.39l33.55-27.14a5.39,5.39,0,0,1,8.78,4.19v54.29a5.35,5.35,0,0,1-3.07,4.87A5.5,5.5,0,0,1,107.43,108.47Zm0-62.1a2.35,2.35,0,0,0-1.49.55L72.39,74.06a2.4,2.4,0,0,0,0,3.73l33.54,27.14a2.39,2.39,0,0,0,3.9-1.86V48.78a2.34,2.34,0,0,0-1.36-2.16A2.45,2.45,0,0,0,107.42,46.37Z"/><path class="j" d="M55.37,78.14,46.94,89.32a3.68,3.68,0,0,1-5.88,0L32.65,78.14a3.68,3.68,0,0,1,0-4.43l8.41-11.18a3.68,3.68,0,0,1,5.88,0l8.43,11.18A3.68,3.68,0,0,1,55.37,78.14Z"/><path class="k" d="M44,92.28h0a5.12,5.12,0,0,1-4.14-2.06L31.45,79a5.21,5.21,0,0,1,0-6.23l8.41-11.18A5.16,5.16,0,0,1,44,59.56h0a5.15,5.15,0,0,1,4.14,2.06L56.56,72.8a5.19,5.19,0,0,1,0,6.24L48.14,90.22A5.15,5.15,0,0,1,44,92.28Zm0-29.72a2.19,2.19,0,0,0-1.75.87L33.84,74.61a2.19,2.19,0,0,0,0,2.63l8.4,11.17a2.17,2.17,0,0,0,1.75.88h0a2.16,2.16,0,0,0,1.74-.87l8.43-11.18a2.21,2.21,0,0,0,0-2.63L45.74,63.43A2.16,2.16,0,0,0,44,62.56Z"/></g></svg>