<svg xmlns="http://www.w3.org/2000/svg" xmlns:xlink="http://www.w3.org/1999/xlink" viewBox="0 0 709.78 66.06"><defs><style>.a{opacity:0.5;}.b{fill:#222426;}.c{opacity:0.15;}.d{opacity:0.2;}.e{fill:#5b6773;}.f{fill:#fff;}.g{fill:#9da4ab;}.h{fill:url(#a);}.i{fill:#f2f2f2;}</style><linearGradient id="a" x1="354.89" y1="1.5" x2="354.89" y2="64.56" gradientUnits="userSpaceOnUse"><stop offset="0" stop-color="#fff"/><stop offset="1"/></linearGradient></defs><g class="a"><path class="b" d="M707.86,64.56A56.16,56.16,0,0,0,664,2.82,54.66,54.66,0,0,0,652,1.5H57.81A55.14,55.14,0,0,0,45.76,2.82,56.16,56.16,0,0,0,1.92,64.56"/><path class="b" d="M707.86,66.06h-.18a1.5,1.5,0,0,1-1.31-1.67A54.66,54.66,0,0,0,663.7,4.28,53.57,53.57,0,0,0,652,3H57.81A55,55,0,0,0,19.05,19.05,54.56,54.56,0,0,0,3,57.81a55.17,55.17,0,0,0,.41,6.57,1.5,1.5,0,1,1-3,.36,57.59,57.59,0,0,1,16.5-47.81A58,58,0,0,1,57.81,0H652a56.38,56.38,0,0,1,12.35,1.36,58,58,0,0,1,45.43,56.45,57,57,0,0,1-.43,6.93A1.5,1.5,0,0,1,707.86,66.06Z"/></g><g class="c"><path class="b" d="M664,2.81A44.53,44.53,0,0,1,654,18.25a44.64,44.64,0,0,1-31.64,13.09H87.48A44.73,44.73,0,0,1,45.77,2.81a55.43,55.43,0,0,1,12-1.3H652A55.5,55.5,0,0,1,664,2.81Z"/></g><g class="d"><path class="b" d="M707.86,64.56A56.16,56.16,0,0,0,664,2.82,54.66,54.66,0,0,0,652,1.5H57.81A55.14,55.14,0,0,0,45.76,2.82,56.16,56.16,0,0,0,1.92,64.56"/><path class="b" d="M707.86,66.06h-.18a1.5,1.5,0,0,1-1.31-1.67A54.66,54.66,0,0,0,663.7,4.28,53.57,53.57,0,0,0,652,3H57.81A55,55,0,0,0,19.05,19.05,54.56,54.56,0,0,0,3,57.81a55.17,55.17,0,0,0,.41,6.57,1.5,1.5,0,1,1-3,.36,57.59,57.59,0,0,1,16.5-47.81A58,58,0,0,1,57.81,0H652a56.38,56.38,0,0,1,12.35,1.36,58,58,0,0,1,45.43,56.45,57,57,0,0,1-.43,6.93A1.5,1.5,0,0,1,707.86,66.06Z"/></g><g class="a"><path class="e" d="M707.86,64.56A56.16,56.16,0,0,0,664,2.82,54.66,54.66,0,0,0,652,1.5H57.81A55.14,55.14,0,0,0,45.76,2.82,56.16,56.16,0,0,0,1.92,64.56"/><path class="f" d="M707.86,66.06h-.18a1.5,1.5,0,0,1-1.31-1.67A54.66,54.66,0,0,0,663.7,4.28,53.57,53.57,0,0,0,652,3H57.81A55,55,0,0,0,19.05,19.05,54.56,54.56,0,0,0,3,57.81a55.17,55.17,0,0,0,.41,6.57,1.5,1.5,0,1,1-3,.36,57.59,57.59,0,0,1,16.5-47.81A58,58,0,0,1,57.81,0H652a56.38,56.38,0,0,1,12.35,1.36,58,58,0,0,1,45.43,56.45,57,57,0,0,1-.43,6.93A1.5,1.5,0,0,1,707.86,66.06Z"/></g><g class="c"><path class="g" d="M664,2.81A44.53,44.53,0,0,1,654,18.25a44.64,44.64,0,0,1-31.64,13.09H87.48A44.73,44.73,0,0,1,45.77,2.81a55.43,55.43,0,0,1,12-1.3H652A55.5,55.5,0,0,1,664,2.81Z"/></g><g class="d"><path class="h" d="M707.86,64.56A56.16,56.16,0,0,0,664,2.82,54.66,54.66,0,0,0,652,1.5H57.81A55.14,55.14,0,0,0,45.76,2.82,56.16,56.16,0,0,0,1.92,64.56"/><path class="i" d="M707.86,66.06h-.18a1.5,1.5,0,0,1-1.31-1.67A54.66,54.66,0,0,0,663.7,4.28,53.57,53.57,0,0,0,652,3H57.81A55,55,0,0,0,19.05,19.05,54.56,54.56,0,0,0,3,57.81a55.17,55.17,0,0,0,.41,6.57,1.5,1.5,0,1,1-3,.36,57.59,57.59,0,0,1,16.5-47.81A58,58,0,0,1,57.81,0H652a56.38,56.38,0,0,1,12.35,1.36,58,58,0,0,1,45.43,56.45,57,57,0,0,1-.43,6.93A1.5,1.5,0,0,1,707.86,66.06Z"/></g></svg>