<svg xmlns="http://www.w3.org/2000/svg" xmlns:xlink="http://www.w3.org/1999/xlink" viewBox="0 0 905.79 203.06"><defs><style>.a{opacity:0.5;}.b{fill:#222426;}.c{opacity:0.15;}.d{opacity:0.2;}.e{fill:#5b6773;}.f{fill:#fff;}.g{fill:#9da4ab;}.h{fill:url(#a);}.i{fill:#f2f2f2;}</style><linearGradient id="a" x1="452.9" y1="1.5" x2="452.9" y2="201.56" gradientUnits="userSpaceOnUse"><stop offset="0" stop-color="#fff"/><stop offset="1"/></linearGradient></defs><g class="a"><path class="b" d="M904.29,101.53a100,100,0,0,1-100,100H101.53A100,100,0,0,1,80.15,3.81,98.5,98.5,0,0,1,101.53,1.5H804.26a98.43,98.43,0,0,1,21.38,2.31A100,100,0,0,1,904.29,101.53Z"/><path class="b" d="M804.26,203.06H101.53A101.53,101.53,0,0,1,79.83,2.35,100.05,100.05,0,0,1,101.53,0H804.26A100.08,100.08,0,0,1,826,2.35c46.25,10.05,79.82,51.76,79.82,99.18A101.5,101.5,0,0,1,804.26,203.06ZM101.53,3a97.18,97.18,0,0,0-21,2.27,98.53,98.53,0,0,0,21,194.79H804.26a98.52,98.52,0,0,0,98.54-98.53c0-46-32.59-86.5-77.47-96.26A97.43,97.43,0,0,0,804.26,3Z"/></g><g class="c"><path class="b" d="M825.64,3.81a79.3,79.3,0,0,1-17.9,27.44,79.31,79.31,0,0,1-56.22,23.26H154.27A79.51,79.51,0,0,1,80.15,3.81,98.5,98.5,0,0,1,101.53,1.5H804.26A98.43,98.43,0,0,1,825.64,3.81Z"/></g><g class="d"><path class="b" d="M904.29,101.53a100,100,0,0,1-100,100H101.53A100,100,0,0,1,80.15,3.81,98.5,98.5,0,0,1,101.53,1.5H804.26a98.43,98.43,0,0,1,21.38,2.31A100,100,0,0,1,904.29,101.53Z"/><path class="b" d="M804.26,203.06H101.53A101.53,101.53,0,0,1,79.83,2.35,100.05,100.05,0,0,1,101.53,0H804.26A100.08,100.08,0,0,1,826,2.35c46.25,10.05,79.82,51.76,79.82,99.18A101.5,101.5,0,0,1,804.26,203.06ZM101.53,3a97.18,97.18,0,0,0-21,2.27,98.53,98.53,0,0,0,21,194.79H804.26a98.52,98.52,0,0,0,98.54-98.53c0-46-32.59-86.5-77.47-96.26A97.43,97.43,0,0,0,804.26,3Z"/></g><g class="a"><path class="e" d="M904.29,101.53a100,100,0,0,1-100,100H101.53A100,100,0,0,1,80.15,3.81,98.5,98.5,0,0,1,101.53,1.5H804.26a98.43,98.43,0,0,1,21.38,2.31A100,100,0,0,1,904.29,101.53Z"/><path class="f" d="M804.26,203.06H101.53A101.53,101.53,0,0,1,79.83,2.35,100.05,100.05,0,0,1,101.53,0H804.26A100.08,100.08,0,0,1,826,2.35c46.25,10.05,79.82,51.76,79.82,99.18A101.5,101.5,0,0,1,804.26,203.06ZM101.53,3a97.18,97.18,0,0,0-21,2.27,98.53,98.53,0,0,0,21,194.79H804.26a98.52,98.52,0,0,0,98.54-98.53c0-46-32.59-86.5-77.47-96.26A97.43,97.43,0,0,0,804.26,3Z"/></g><g class="c"><path class="g" d="M825.64,3.81a79.3,79.3,0,0,1-17.9,27.44,79.31,79.31,0,0,1-56.22,23.26H154.27A79.51,79.51,0,0,1,80.15,3.81,98.5,98.5,0,0,1,101.53,1.5H804.26A98.43,98.43,0,0,1,825.64,3.81Z"/></g><g class="d"><path class="h" d="M904.29,101.53a100,100,0,0,1-100,100H101.53A100,100,0,0,1,80.15,3.81,98.5,98.5,0,0,1,101.53,1.5H804.26a98.43,98.43,0,0,1,21.38,2.31A100,100,0,0,1,904.29,101.53Z"/><path class="i" d="M804.26,203.06H101.53A101.53,101.53,0,0,1,79.83,2.35,100.05,100.05,0,0,1,101.53,0H804.26A100.08,100.08,0,0,1,826,2.35c46.25,10.05,79.82,51.76,79.82,99.18A101.5,101.5,0,0,1,804.26,203.06ZM101.53,3a97.18,97.18,0,0,0-21,2.27,98.53,98.53,0,0,0,21,194.79H804.26a98.52,98.52,0,0,0,98.54-98.53c0-46-32.59-86.5-77.47-96.26A97.43,97.43,0,0,0,804.26,3Z"/></g></svg>