<svg xmlns="http://www.w3.org/2000/svg" xmlns:xlink="http://www.w3.org/1999/xlink" viewBox="0 0 152.8 152.8"><defs><style>.a{fill:#222426;}.b{opacity:0.6;}.c{fill:#5b6773;}.d{opacity:0.3;}.e{fill:#9da4ab;}.f{fill:#adadc9;}.g{opacity:0.4;}.h{fill:url(#a);}.i{fill:#f2f2f2;}.j{fill:#cccfd3;}.k{fill:#f2edf1;}</style><linearGradient id="a" x1="23.43" y1="23.44" x2="129.36" y2="129.36" gradientUnits="userSpaceOnUse"><stop offset="0" stop-color="#fff"/><stop offset="1"/></linearGradient></defs><path class="a" d="M141.92,37.13A75.76,75.76,0,0,0,76.4,0c-2,0-3.86.07-5.62.21A76.54,76.54,0,0,0,10.89,37.07a75.67,75.67,0,0,0-6,12.36,76.42,76.42,0,1,0,137-12.3Z"/><g class="b"><path class="c" d="M151.31,76.4A74.92,74.92,0,1,1,70.88,1.71c1.83-.15,3.66-.21,5.52-.21a75,75,0,0,1,74.91,74.9Z"/><g class="d"><path class="e" d="M140.63,37.9c-4.44,21.89-31.51,38.77-64.23,38.77S16.58,59.76,12.17,37.84A74.9,74.9,0,0,1,70.88,1.71c1.83-.15,3.66-.21,5.52-.21A74.73,74.73,0,0,1,140.63,37.9Z"/></g><path class="f" d="M76.4,152.8A76.46,76.46,0,0,1,4.89,49.43a75.67,75.67,0,0,1,6-12.36A76.54,76.54,0,0,1,70.78.21C72.54.07,74.39,0,76.4,0a76.4,76.4,0,0,1,0,152.8ZM76.4,3c-1.93,0-3.7.07-5.39.2A73.53,73.53,0,0,0,13.46,38.61,72.48,72.48,0,0,0,7.7,50.48,73.41,73.41,0,1,0,76.4,3Z"/><g class="g"><path class="h" d="M151.31,76.4A74.92,74.92,0,1,1,70.88,1.71c1.83-.15,3.66-.21,5.52-.21a75,75,0,0,1,74.91,74.9Z"/><path class="i" d="M76.4,152.8A76.46,76.46,0,0,1,4.89,49.43a75.67,75.67,0,0,1,6-12.36A76.54,76.54,0,0,1,70.78.21C72.54.07,74.39,0,76.4,0a76.4,76.4,0,0,1,0,152.8ZM76.4,3c-1.93,0-3.7.07-5.39.2A73.53,73.53,0,0,0,13.46,38.61,72.48,72.48,0,0,0,7.7,50.48,73.41,73.41,0,1,0,76.4,3Z"/></g><path class="j" d="M64.9,72.9,98.45,45.75a3.89,3.89,0,0,1,6.34,3v54.29a3.89,3.89,0,0,1-6.34,3L64.9,79A3.9,3.9,0,0,1,64.9,72.9Z"/><path class="k" d="M100.89,108.47a5.37,5.37,0,0,1-3.39-1.21L64,80.12a5.4,5.4,0,0,1,0-8.39L97.5,44.59a5.39,5.39,0,0,1,8.79,4.19v54.29a5.37,5.37,0,0,1-3.07,4.87A5.53,5.53,0,0,1,100.89,108.47Zm0-62.1a2.35,2.35,0,0,0-1.49.55L65.85,74.06a2.4,2.4,0,0,0,0,3.73l33.54,27.14a2.39,2.39,0,0,0,3.9-1.86V48.78a2.34,2.34,0,0,0-1.36-2.16A2.49,2.49,0,0,0,100.88,46.37Z"/><path class="j" d="M50.33,110a3.75,3.75,0,0,1-3.75-3.75V45.65a3.75,3.75,0,1,1,7.5,0V106.2A3.75,3.75,0,0,1,50.33,110Z"/><path class="k" d="M50.33,43.4a2.25,2.25,0,0,1,2.25,2.25V106.2a2.25,2.25,0,0,1-4.5,0V45.65a2.25,2.25,0,0,1,2.25-2.25m0-3a5.26,5.26,0,0,0-5.25,5.25V106.2a5.25,5.25,0,0,0,10.5,0V45.65a5.26,5.26,0,0,0-5.25-5.25Z"/></g></svg>